mtllib elevatordoor.mtl
# vertices
v -48.14035087719094 -92 7.25
v -48.14035087719094 -92 15.25
v -48.14035087719094 100 15.25
v -48.14035087719094 100 7.25
v 51.85964912280906 100 15.25
v 51.859649122807156 -92 15.25
v 51.859649122807156 -92 7.25
v 51.85964912280906 100 7.25

# texture coordinates
vt 0.11366667 -0.122666664
vt 0.12433334 -0.122666664
vt 0.12433334 0.13333334
vt 0.11366667 0.13333334
vt 0.028666671 0.13333334
vt 0.14741668 0.13333334
vt 0.14741668 -0.122666664
vt 0.028666671 -0.122666664
vt 0.028666671 -0.12433334
vt 0.14741668 -0.12433334
vt 0.14741668 -0.11366667
vt 0.028666671 -0.11366667
vt -0.028666671 -0.11366667
vt -0.14741668 -0.11366667
vt -0.14741668 -0.12433334
vt -0.028666671 -0.12433334
vt -0.028666671 -0.122666664
vt -0.14741668 -0.122666664
vt -0.14741668 0.13333334
vt -0.028666671 0.13333334
vt -0.11366667 0.13333334
vt -0.12433334 0.13333334
vt -0.12433334 -0.122666664
vt -0.11366667 -0.122666664

# normals
vn -1 0 0
vn 0 0 1
vn 0 -1 -0
vn -0 1 -0
vn 0 -0 -1
vn 1 -9.917992353318065e-15 -0

o entity0_brush0
usemtl pdtextures/461223198
f  1/1/1  2/2/1  3/3/1  4/4/1
usemtl pdtextures/461223198
f  5/5/2  3/6/2  2/7/2  6/8/2
usemtl pdtextures/461223198
f  6/9/3  2/10/3  1/11/3  7/12/3
usemtl pdtextures/461223198
f  8/13/4  4/14/4  3/15/4  5/16/4
usemtl pdtextures/461223198
f  7/17/5  1/18/5  4/19/5  8/20/5
usemtl pdtextures/461223198
f  8/21/6  5/22/6  6/23/6  7/24/6

