mtllib Door.mtl
# vertices
v 7 110 -42
v 7 107.17157287524412 -40.82842712472039
v 7 106 -38
v 7 107.17157287525333 -35.171572875266065
v 7 110 -34
v 7 112.82842712474763 -35.17157287525015
v 7 114 -38
v 7 112.82842712472288 -40.82842712477177
v 11 112.82842712474763 -35.17157287525015
v 11 110 -34
v 11 107.17157287525333 -35.171572875266065
v 11 106 -38
v 11 114 -38
v 11 107.17157287524412 -40.82842712472039
v 11 112.82842712472288 -40.82842712477177
v 11 110 -42
v 10 110 -40
v 10 108.58578643762334 -39.41421356236073
v 10 108 -38
v 10 108.5857864376303 -36.58578643763212
v 10 110 -36
v 10 111.41421356237383 -36.585786437625075
v 10 112 -38
v 10 111.41421356236242 -39.41421356238537
v 14 111.41421356237383 -36.585786437625075
v 14 110 -36
v 14 108.5857864376303 -36.58578643763212
v 14 108 -38
v 14 112 -38
v 14 108.58578643762334 -39.41421356236073
v 14 111.41421356236242 -39.41421356238537
v 14 110 -40
v 16 16 -48
v 16 16 48
v 16 208 48
v 16 208 -48
v 20 208 48
v 20 16 48
v 20 16 -48
v 20 208 -48
v 21 110 -40
v 21 108.58578643762334 -39.41421356236073
v 21 108 -38
v 21 108.5857864376303 -36.58578643763212
v 21 110 -36
v 21 111.41421356237383 -36.585786437625075
v 21 112 -38
v 21 111.41421356236242 -39.41421356238537
v 25 111.41421356237383 -36.585786437625075
v 25 110 -36
v 25 108.5857864376303 -36.58578643763212
v 25 108 -38
v 25 112 -38
v 25 108.58578643762334 -39.41421356236073
v 25 111.41421356236242 -39.41421356238537
v 25 110 -40
v 24 110 -42
v 24 107.17157287524412 -40.82842712472039
v 24 106 -38
v 24 107.17157287525333 -35.171572875266065
v 24 110 -34
v 24 112.82842712474763 -35.17157287525015
v 24 114 -38
v 24 112.828427124723 -40.828427124771494
v 28 112.82842712474763 -35.17157287525015
v 28 110 -34
v 28 107.17157287525333 -35.171572875266065
v 28 106 -38
v 28 114 -38
v 28 107.17157287524412 -40.82842712472039
v 28 112.828427124723 -40.828427124771494
v 28 110 -42

# texture coordinates
vt -0.21333334 -0.06933333
vt -0.2125523 -0.067447715
vt -0.21066667 -0.06666667
vt -0.20878105 -0.067447715
vt -0.208 -0.06933333
vt -0.20878105 -0.07121895
vt -0.21066667 -0.072
vt -0.2125523 -0.07121895
vt 0.14569461 0.10666667
vt 0.14569461 0.104
vt 0.14365365 0.104
vt 0.14365365 0.10666667
vt -0.0155425975 0.10666667
vt -0.0155425975 0.104
vt -0.017583583 0.104
vt -0.017583583 0.10666667
vt -0.167077 0.10666667
vt -0.167077 0.104
vt -0.16911799 0.104
vt -0.16911799 0.10666667
vt 0.22218366 0.10666667
vt 0.22218366 0.104
vt 0.22014266 0.104
vt 0.22014266 0.10666667
vt -0.22014263 0.10666667
vt -0.22014263 0.104
vt -0.22218361 0.104
vt -0.22218361 0.10666667
vt 0.16911799 0.10666667
vt 0.16911799 0.104
vt 0.167077 0.104
vt 0.167077 0.10666667
vt -0.14365365 0.10666667
vt -0.14365365 0.104
vt -0.14569461 0.104
vt -0.14569461 0.10666667
vt 0.017583577 0.10666667
vt 0.017583577 0.104
vt 0.015542602 0.104
vt 0.015542602 0.10666667
vt 0.21255226 -0.07121896
vt 0.21066667 -0.072000004
vt 0.20878105 -0.07121896
vt 0.208 -0.06933334
vt 0.20878105 -0.06744772
vt 0.21066667 -0.06666667
vt 0.21255226 -0.06744772
vt 0.21333331 -0.06933334
vt 0.14569478 0.10666667
vt 0.14569478 0.101333335
vt 0.1436538 0.101333335
vt 0.1436538 0.10666667
vt -0.015542552 0.10666667
vt -0.015542552 0.101333335
vt -0.017583517 0.101333335
vt -0.017583517 0.10666667
vt -0.16707712 0.10666667
vt -0.16707712 0.101333335
vt -0.1691181 0.101333335
vt -0.1691181 0.10666667
vt 0.22218378 0.10666667
vt 0.22218378 0.101333335
vt 0.2201428 0.101333335
vt 0.2201428 0.10666667
vt -0.2201428 0.10666667
vt -0.2201428 0.101333335
vt -0.22218378 0.101333335
vt -0.22218378 0.10666667
vt 0.1691181 0.10666667
vt 0.1691181 0.101333335
vt 0.16707712 0.101333335
vt 0.16707712 0.10666667
vt -0.1436538 0.10666667
vt -0.1436538 0.101333335
vt -0.14569478 0.101333335
vt -0.14569478 0.10666667
vt 0.017583547 0.10666667
vt 0.017583547 0.101333335
vt 0.015542562 0.101333335
vt 0.015542562 0.10666667
vt 0.21255225 -0.07121895
vt 0.21066664 -0.072
vt 0.20878102 -0.07121895
vt 0.20799997 -0.06933333
vt 0.20878102 -0.06744772
vt 0.21066664 -0.06666667
vt 0.21255225 -0.06744772
vt 0.2133333 -0.06933333
vt 0.08533333 -0
vt -0.042666666 -0
vt -0.042666666 -0.256
vt 0.08533333 -0.256
vt -0.22133334 0.256
vt -0.216 0.256
vt -0.216 -0
vt -0.22133334 -0
vt -0.22133334 0.042666666
vt -0.216 0.042666666
vt -0.216 -0.08533333
vt -0.22133334 -0.08533333
vt 0.22133334 -0.08533333
vt 0.216 -0.08533333
vt 0.216 0.042666666
vt 0.22133334 0.042666666
vt 0.22133334 -0
vt 0.216 -0
vt 0.216 0.256
vt 0.22133334 0.256
vt -0.08533333 -0.256
vt 0.042666666 -0.256
vt 0.042666666 -0
vt -0.08533333 -0

# normals
vn -1 0 -0
vn 0 0.382683432363904 0.9238795325117779
vn 0 -0.3826834323685262 0.9238795325098634
vn 0 -0.9238795325108909 0.3826834323660451
vn 0 0.9238795325116269 0.3826834323642684
vn 0 -0.9238795325109852 -0.3826834323658178
vn -0 0.9238795325098934 -0.3826834323684539
vn 0 -0.38268343237116287 -0.9238795325087713
vn -0 0.3826834323606486 -0.9238795325131263
vn 1 0 -0
vn 0 0.3826834323638991 0.92387953251178
vn 0 -0.38268343236852786 0.9238795325098628
vn 0 -0.9238795325108894 0.382683432366049
vn 0 0.9238795325116319 0.3826834323642565
vn 0 -0.9238795325109836 -0.38268343236582175
vn -0 0.923879532509884 -0.3826834323684762
vn 0 -0.3826834323711645 -0.9238795325087705
vn -0 0.3826834323607104 -0.9238795325131007
vn 0 0 1
vn 0 -1 0
vn 0 1 -0
vn -0 0 -1
vn 0 0.9238795325098825 -0.3826834323684802
vn 0 0.382683432360712 -0.9238795325131001

o entity1_brush0
usemtl pdtextures/461223196
f  1/1/1  2/2/1  3/3/1  4/4/1  5/5/1  6/6/1  7/7/1  8/8/1
usemtl pdtextures/461223196
f  9/9/2  6/10/2  5/11/2  10/12/2
usemtl pdtextures/461223196
f  10/13/3  5/14/3  4/15/3  11/16/3
usemtl pdtextures/461223196
f  11/17/4  4/18/4  3/19/4  12/20/4
usemtl pdtextures/461223196
f  13/21/5  7/22/5  6/23/5  9/24/5
usemtl pdtextures/461223196
f  12/25/6  3/26/6  2/27/6  14/28/6
usemtl pdtextures/461223196
f  15/29/7  8/30/7  7/31/7  13/32/7
usemtl pdtextures/461223196
f  14/33/8  2/34/8  1/35/8  16/36/8
usemtl pdtextures/461223196
f  16/37/9  1/38/9  8/39/9  15/40/9
usemtl pdtextures/461223196
f  15/41/10  13/42/10  9/43/10  10/44/10  11/45/10  12/46/10  14/47/10  16/48/10

o entity1_brush1
usemtl pdtextures/461223196
f  17/1/1  18/2/1  19/3/1  20/4/1  21/5/1  22/6/1  23/7/1  24/8/1
usemtl pdtextures/461223196
f  25/49/11  22/50/11  21/51/11  26/52/11
usemtl pdtextures/461223196
f  26/53/12  21/54/12  20/55/12  27/56/12
usemtl pdtextures/461223196
f  27/57/13  20/58/13  19/59/13  28/60/13
usemtl pdtextures/461223196
f  29/61/14  23/62/14  22/63/14  25/64/14
usemtl pdtextures/461223196
f  28/65/15  19/66/15  18/67/15  30/68/15
usemtl pdtextures/461223196
f  31/69/16  24/70/16  23/71/16  29/72/16
usemtl pdtextures/461223196
f  30/73/17  18/74/17  17/75/17  32/76/17
usemtl pdtextures/461223196
f  32/77/18  17/78/18  24/79/18  31/80/18
usemtl pdtextures/461223196
f  31/81/10  29/82/10  25/83/10  26/84/10  27/85/10  28/86/10  30/87/10  32/88/10

o entity1_brush2
usemtl pdtextures/461223175
f  33/89/1  34/90/1  35/91/1  36/92/1
usemtl pdtextures/461223175
f  37/93/19  35/94/19  34/95/19  38/96/19
usemtl pdtextures/461223175
f  38/97/20  34/98/20  33/99/20  39/100/20
usemtl pdtextures/461223175
f  40/101/21  36/102/21  35/103/21  37/104/21
usemtl pdtextures/461223175
f  39/105/22  33/106/22  36/107/22  40/108/22
usemtl pdtextures/461223175
f  40/109/10  37/110/10  38/111/10  39/112/10

o entity2_brush0
usemtl pdtextures/461223196
f  41/88/1  42/87/1  43/86/1  44/85/1  45/84/1  46/83/1  47/82/1  48/81/1
usemtl pdtextures/461223196
f  49/50/11  46/49/11  45/52/11  50/51/11
usemtl pdtextures/461223196
f  50/54/12  45/53/12  44/56/12  51/55/12
usemtl pdtextures/461223196
f  51/58/13  44/57/13  43/60/13  52/59/13
usemtl pdtextures/461223196
f  53/62/14  47/61/14  46/64/14  49/63/14
usemtl pdtextures/461223196
f  52/66/15  43/65/15  42/68/15  54/67/15
usemtl pdtextures/461223196
f  55/70/16  48/69/16  47/72/16  53/71/16
usemtl pdtextures/461223196
f  54/74/17  42/73/17  41/76/17  56/75/17
usemtl pdtextures/461223196
f  56/78/18  41/77/18  48/80/18  55/79/18
usemtl pdtextures/461223196
f  55/8/10  53/7/10  49/6/10  50/5/10  51/4/10  52/3/10  54/2/10  56/1/10

o entity2_brush1
usemtl pdtextures/461223196
f  57/48/1  58/47/1  59/46/1  60/45/1  61/44/1  62/43/1  63/42/1  64/41/1
usemtl pdtextures/461223196
f  65/10/2  62/9/2  61/12/2  66/11/2
usemtl pdtextures/461223196
f  66/14/3  61/13/3  60/16/3  67/15/3
usemtl pdtextures/461223196
f  67/18/4  60/17/4  59/20/4  68/19/4
usemtl pdtextures/461223196
f  69/22/5  63/21/5  62/24/5  65/23/5
usemtl pdtextures/461223196
f  68/26/6  59/25/6  58/28/6  70/27/6
usemtl pdtextures/461223196
f  71/30/23  64/29/23  63/32/23  69/31/23
usemtl pdtextures/461223196
f  70/34/8  58/33/8  57/36/8  72/35/8
usemtl pdtextures/461223196
f  72/38/24  57/37/24  64/40/24  71/39/24
usemtl pdtextures/461223196
f  71/8/10  69/7/10  65/6/10  66/5/10  67/4/10  68/3/10  70/2/10  72/1/10

